<?xml version="1.0"?><svg width="765" height="990" xmlns="http://www.w3.org/2000/svg">
 <title>Person Outline</title>

 <metadata id="metadata3615">image/svg+xmlPerson OutlineFabricatorz, Lu Fang, Jon Phillips</metadata>
 <g>
  <title>Layer 1</title>
  <g id="layer1">
   <path d="m330.70401,116.147003c0,0 -3.139008,3.134003 -6.279022,0.623993c-3.128998,-2.509003 -10.03299,-18.191986 -10.03299,-18.191986c0,0 0,-8.784012 0,-8.784012c0,0 -0.625,-4.393997 -0.625,-4.393997c0,0 -4.389008,-4.389008 -4.389008,-4.389008c0,0 -6.903992,-7.533997 -1.889984,-21.96199c5.019989,-14.427803 13.182983,-30.115501 19.457001,-34.504807c6.269989,-4.394295 17.562988,-8.153702 17.562988,-8.153702c0,0 6.903992,-1.884689 6.903992,-1.884689c0,0 8.78302,-0.630104 8.78302,-0.630104c0,0 1.25,-3.139397 13.802979,2.514702c12.548004,5.639099 17.568024,10.668297 26.976013,20.0718c9.414001,9.408699 11.923004,10.668594 12.548004,17.567398c0.63501,6.898895 0,15.062798 0,15.062798c0,0 -1.26001,5.019608 1.26001,10.0336c2.503998,5.024002 5.643982,3.763992 1.25,10.667999c-4.39502,6.899002 -8.779022,11.917999 -8.779022,11.917999c0,0 -5.023987,5.014999 -5.023987,5.014999c0,0 -2.51001,-3.134995 -2.51001,1.889008c0,5.013992 -2.503998,11.922989 -2.503998,11.922989c0,0 2.503998,26.346008 2.503998,26.346008c0,0 1.88501,1.884995 8.789001,3.139999c6.899017,1.255005 16.937012,7.528992 26.976013,7.528992c10.03299,0 11.923004,0 11.923004,0c0,0 3.133972,3.759003 -5.024017,6.274002c-8.153992,2.509003 -9.408997,2.509003 -4.394989,5.644012c5.024994,3.139999 14.432983,6.273987 14.432983,6.273987c0,0 13.178009,1.88501 20.707001,8.159012c7.528992,6.273987 23.216003,35.128998 23.216003,38.898987c0,3.759003 8.778992,8.154022 6.275024,12.548004c-2.515015,4.389008 -3.140015,6.899017 -3.140015,6.899017c0,0 0.625,5.023987 4.393982,10.667999c3.765015,5.643982 10.039001,24.465973 11.91803,30.115997c1.880005,5.643982 1.255005,8.78299 4.394958,17.561981c3.134033,8.783997 3.759033,18.826996 1.879028,21.337006c-1.879028,2.503998 -0.630005,8.78299 -3.768982,16.312012c-3.13501,7.523987 -0.624023,11.292999 -5.644043,15.057983c-5.013977,3.759003 -15.682983,7.529022 -15.682983,7.529022c0,0 -4.393982,0.625 -4.393982,0.625c0,0 0.630005,13.172974 2.51001,21.33197c1.883972,8.154022 0,21.337006 6.273987,38.899017c6.278992,17.566986 11.292969,50.191956 11.292969,50.191956c0,0 -3.763977,9.409058 -9.414001,15.058044c-5.643982,5.648987 -32.619965,13.802979 -32.619965,13.802979c0,0 4.389984,93.481018 1.254974,106.658997c-3.138977,13.173035 -5.018982,21.337036 -8.158997,23.216003c-3.138977,1.880005 2.51001,34.505005 0.631012,42.033997c-1.880005,7.529053 -3.769989,28.230042 -3.769989,28.230042c0,0 1.889984,13.807983 1.889984,13.807983c0,0 5.644012,6.273987 5.644012,6.273987c0,0 1.25,13.16803 1.25,13.16803c0,0 -1.25,36.394958 -5.644012,48.937988c-4.389984,12.552979 -2.51001,16.317017 -2.51001,21.96698c0,5.644043 -7.528992,30.11499 -7.528992,30.11499c0,0 4.394012,35.129028 4.394012,35.129028c0,0 5.644989,6.903992 5.644989,6.903992c0,0 17.566986,12.549011 23.845978,16.942993c6.269043,4.389038 24.466003,16.937012 24.466003,16.937012c0,0 7.524048,6.273987 6.904053,10.664001c-0.634033,4.393982 -5.019043,10.663025 -5.019043,10.663025c0,0 -15.062988,11.292969 -37.648987,4.393982c-22.587006,-6.898987 -57.721008,-25.721008 -57.721008,-25.721008c0,0 -20.701996,-10.663025 -20.701996,-10.663025c0,0 -4.394989,-5.648987 -4.394989,-5.648987c0,0 -0.625,-5.018982 -0.625,-5.018982c0,0 3.134003,-3.765015 3.134003,-3.765015c0,0 3.139984,-2.508972 3.139984,-2.508972c0,0 0,-5.64502 0,-5.64502c0,0 -6.898987,-8.15802 -8.158997,-13.807983c-1.25,-5.639038 -1.880005,-98.499023 -0.625,-111.671997c1.255005,-13.17804 1.88501,-23.217041 3.13501,-26.986023c1.255005,-3.755005 2.509003,-6.898987 2.509003,-6.898987c0,0 -1.884003,-8.148987 -1.884003,-8.148987c0,0 0,-7.533997 0,-7.533997c0,0 5.648987,-15.688049 5.648987,-15.688049c0,0 -13.173004,-50.816956 -13.173004,-62.109985c0,-11.297974 -2.509979,-50.192017 -2.509979,-50.192017c0,0 -7.53302,-25.720947 -7.53302,-25.720947c0,0 -2.505005,-8.159058 -2.505005,-8.159058c0,0 -4.393982,6.269043 -8.153992,10.66803c-3.764008,4.38501 -1.259003,8.778992 -6.903992,21.327026c-5.649017,12.552979 -18.196991,48.942993 -18.196991,48.942993c0,0 -10.038025,39.527954 -10.038025,39.527954c0,0 -8.783997,89.092041 -8.783997,89.092041c0,0 -15.687988,119.825989 -15.687988,119.825989c0,0 0,11.294006 0,15.057983c0,3.765015 -9.40799,17.567017 -10.037994,21.962036c-0.619995,4.393982 4.393982,7.533997 -1.880005,14.427979c-6.274017,6.903992 -8.153015,16.942017 -15.057007,16.317017c-6.899994,-0.630005 -33.880005,-1.26001 -38.269989,-7.533997c-4.389008,-6.279053 -1.26001,-40.778015 -1.26001,-40.778015c0,0 4.399994,-6.273987 4.399994,-6.273987c0,0 0,-37.64502 0,-37.64502c0,0 24.466003,-186.341003 24.466003,-186.341003c0,0 -1.878998,-24.46698 -1.878998,-24.46698c0,0 -2.514984,-42.038025 -2.514984,-42.038025c0,0 5.023987,-84.697021 5.023987,-84.697021c0,0 2.505005,-13.177979 2.505005,-13.177979c0,0 -4.390015,-6.268982 -4.390015,-6.268982c0,0 -11.923004,-3.140015 -11.923004,-3.140015c0,0 4.394012,-28.230042 4.394012,-28.230042c0,0 19.447998,-94.115967 19.447998,-94.115967c0,0 -8.153992,-11.912994 -8.153992,-11.912994c0,0 -10.039001,-66.51001 -10.039001,-66.51001c0,0 10.039001,-84.696991 10.039001,-84.696991c0,0 15.686981,-14.432999 21.960999,-17.571991c6.273987,-3.139999 20.071991,-12.548004 20.071991,-12.548004c0,0 6.903992,-8.153992 6.903992,-8.153992c0,0 11.294006,-10.039001 15.058014,-11.918015c3.759003,-1.87999 4.394012,-3.139999 4.394012,-3.139999c0,0 -2.514008,-12.547989 -3.139008,-17.566986c-0.626007,-5.019012 -5.649017,-13.173004 -5.649017,-13.173004l-0.000977,0z" fill="#2e3436" id="path3449"/>
  </g>
 </g>
</svg>